{
    "asset" : {
        "generator" : "Khronos glTF Blender I/O v1.7.33",
        "version" : "2.0"
    },
    "scene" : 0,
    "scenes" : [
        {
            "name" : "Scene",
            "nodes" : [
                0
            ]
        }
    ],
    "nodes" : [
        {
            "mesh" : 0,
            "name" : "NoodleCup_Low",
            "rotation" : [
                0.7071068286895752,
                0,
                0,
                0.7071067094802856
            ]
        }
    ],
    "materials" : [
        {
            "doubleSided" : true,
            "name" : "NoodleCup_Plastic",
            "normalTexture" : {
                "index" : 0
            },
            "pbrMetallicRoughness" : {
                "baseColorTexture" : {
                    "index" : 1
                },
                "metallicRoughnessTexture" : {
                    "index" : 2
                }
            }
        },
        {
            "doubleSided" : true,
            "name" : "NoodleCup_Label",
            "normalTexture" : {
                "index" : 3
            },
            "pbrMetallicRoughness" : {
                "baseColorTexture" : {
                    "index" : 4
                },
                "metallicRoughnessTexture" : {
                    "index" : 5
                }
            }
        },
        {
            "doubleSided" : true,
            "name" : "NoodleCup_Foil",
            "normalTexture" : {
                "index" : 6
            },
            "pbrMetallicRoughness" : {
                "baseColorTexture" : {
                    "index" : 7
                },
                "metallicRoughnessTexture" : {
                    "index" : 8
                }
            }
        }
    ],
    "meshes" : [
        {
            "name" : "Mesh",
            "primitives" : [
                {
                    "attributes" : {
                        "POSITION" : 0,
                        "NORMAL" : 1,
                        "TEXCOORD_0" : 2
                    },
                    "indices" : 3,
                    "material" : 0
                },
                {
                    "attributes" : {
                        "POSITION" : 4,
                        "NORMAL" : 5,
                        "TEXCOORD_0" : 6
                    },
                    "indices" : 7,
                    "material" : 1
                },
                {
                    "attributes" : {
                        "POSITION" : 8,
                        "NORMAL" : 9,
                        "TEXCOORD_0" : 10
                    },
                    "indices" : 11,
                    "material" : 2
                }
            ]
        }
    ],
    "textures" : [
        {
            "sampler" : 0,
            "source" : 0
        },
        {
            "sampler" : 0,
            "source" : 1
        },
        {
            "sampler" : 0,
            "source" : 2
        },
        {
            "sampler" : 0,
            "source" : 3
        },
        {
            "sampler" : 0,
            "source" : 4
        },
        {
            "sampler" : 0,
            "source" : 5
        },
        {
            "sampler" : 0,
            "source" : 6
        },
        {
            "sampler" : 0,
            "source" : 7
        },
        {
            "sampler" : 0,
            "source" : 8
        }
    ],
    "images" : [
        {
            "mimeType" : "image/webp",
            "name" : "NoodleCup_Low_NoodleCup_Plastic_Normal",
            "uri" : "Texture/NoodleCup_Low_NoodleCup_Plastic_Normal.webp"
        },
        {
            "mimeType" : "image/webp",
            "name" : "NoodleCup_Low_NoodleCup_Plastic_BaseColor",
            "uri" : "Texture/NoodleCup_Low_NoodleCup_Plastic_BaseColor.webp"
        },
        {
            "mimeType" : "image/webp",
            "name" : "NoodleCup_Low_NoodleCup_Plastic_Metallic-NoodleCup_Low_NoodleCup_Plastic_Roughness",
            "uri" : "Texture/NoodleCup_Low_NoodleCup_Plastic_Metallic-NoodleCup_Low_NoodleCup_Plastic_Roughness.webp"
        },
        {
            "mimeType" : "image/webp",
            "name" : "NoodleCup_Low_NoodleCup_Label_Normal",
            "uri" : "Texture/NoodleCup_Low_NoodleCup_Label_Normal.webp"
        },
        {
            "mimeType" : "image/webp",
            "name" : "NoodleCup_Low_NoodleCup_Label_BaseColor",
            "uri" : "Texture/NoodleCup_Low_NoodleCup_Label_BaseColor.webp"
        },
        {
            "mimeType" : "image/webp",
            "name" : "NoodleCup_Low_NoodleCup_Label_Metallic-NoodleCup_Low_NoodleCup_Label_Roughness",
            "uri" : "Texture/NoodleCup_Low_NoodleCup_Label_Metallic-NoodleCup_Low_NoodleCup_Label_Roughness.webp"
        },
        {
            "mimeType" : "image/webp",
            "name" : "NoodleCup_Low_NoodleCup_Foil_Normal",
            "uri" : "Texture/NoodleCup_Low_NoodleCup_Foil_Normal.webp"
        },
        {
            "mimeType" : "image/webp",
            "name" : "NoodleCup_Low_NoodleCup_Foil_BaseColor",
            "uri" : "Texture/NoodleCup_Low_NoodleCup_Foil_BaseColor.webp"
        },
        {
            "mimeType" : "image/webp",
            "name" : "NoodleCup_Low_NoodleCup_Foil_Metallic-NoodleCup_Low_NoodleCup_Foil_Roughness",
            "uri" : "Texture/NoodleCup_Low_NoodleCup_Foil_Metallic-NoodleCup_Low_NoodleCup_Foil_Roughness.webp"
        }
    ],
    "accessors" : [
        {
            "bufferView" : 0,
            "componentType" : 5126,
            "count" : 425,
            "max" : [
                1.5856027603149414,
                1.5856027603149414,
                -0.013760924339294434
            ],
            "min" : [
                -1.5856027603149414,
                -1.5856027603149414,
                -3.769399642944336
            ],
            "type" : "VEC3"
        },
        {
            "bufferView" : 1,
            "componentType" : 5126,
            "count" : 425,
            "type" : "VEC3"
        },
        {
            "bufferView" : 2,
            "componentType" : 5126,
            "count" : 425,
            "type" : "VEC2"
        },
        {
            "bufferView" : 3,
            "componentType" : 5123,
            "count" : 1680,
            "type" : "SCALAR"
        },
        {
            "bufferView" : 4,
            "componentType" : 5126,
            "count" : 85,
            "max" : [
                1.47821044921875,
                1.47821044921875,
                -0.03113532066345215
            ],
            "min" : [
                -1.47821044921875,
                -1.47821044921875,
                -3.7481513023376465
            ],
            "type" : "VEC3"
        },
        {
            "bufferView" : 5,
            "componentType" : 5126,
            "count" : 85,
            "type" : "VEC3"
        },
        {
            "bufferView" : 6,
            "componentType" : 5126,
            "count" : 85,
            "type" : "VEC2"
        },
        {
            "bufferView" : 7,
            "componentType" : 5123,
            "count" : 384,
            "type" : "SCALAR"
        },
        {
            "bufferView" : 8,
            "componentType" : 5126,
            "count" : 229,
            "max" : [
                1.5856027603149414,
                1.8448750972747803,
                -3.7504653930664062
            ],
            "min" : [
                -1.5856027603149414,
                -1.5856027603149414,
                -3.7776825428009033
            ],
            "type" : "VEC3"
        },
        {
            "bufferView" : 9,
            "componentType" : 5126,
            "count" : 229,
            "type" : "VEC3"
        },
        {
            "bufferView" : 10,
            "componentType" : 5126,
            "count" : 229,
            "type" : "VEC2"
        },
        {
            "bufferView" : 11,
            "componentType" : 5123,
            "count" : 972,
            "type" : "SCALAR"
        }
    ],
    "bufferViews" : [
        {
            "buffer" : 0,
            "byteLength" : 5100,
            "byteOffset" : 0
        },
        {
            "buffer" : 0,
            "byteLength" : 5100,
            "byteOffset" : 5100
        },
        {
            "buffer" : 0,
            "byteLength" : 3400,
            "byteOffset" : 10200
        },
        {
            "buffer" : 0,
            "byteLength" : 3360,
            "byteOffset" : 13600
        },
        {
            "buffer" : 0,
            "byteLength" : 1020,
            "byteOffset" : 16960
        },
        {
            "buffer" : 0,
            "byteLength" : 1020,
            "byteOffset" : 17980
        },
        {
            "buffer" : 0,
            "byteLength" : 680,
            "byteOffset" : 19000
        },
        {
            "buffer" : 0,
            "byteLength" : 768,
            "byteOffset" : 19680
        },
        {
            "buffer" : 0,
            "byteLength" : 2748,
            "byteOffset" : 20448
        },
        {
            "buffer" : 0,
            "byteLength" : 2748,
            "byteOffset" : 23196
        },
        {
            "buffer" : 0,
            "byteLength" : 1832,
            "byteOffset" : 25944
        },
        {
            "buffer" : 0,
            "byteLength" : 1944,
            "byteOffset" : 27776
        }
    ],
    "samplers" : [
        {
            "magFilter" : 9729,
            "minFilter" : 9987
        }
    ],
    "buffers" : [
        {
            "byteLength" : 29720,
            "uri" : "NoodleCup_Low.bin"
        }
    ]
}
